<?xml version="1.0" encoding="utf-8"?><svg xmlns="http://www.w3.org/2000/svg" xmlns:xlink="http://www.w3.org/1999/xlink"><symbol viewBox="0 0 24 24" id="car-suv" xmlns="http://www.w3.org/2000/svg"><path d="M0 0h24v24H0z" fill="none"/><path d="M7 14a3 3 0 1 1-3 3l.005-.176A3 3 0 0 1 7 14m11 0a3 3 0 1 1-3 3l.005-.176A3 3 0 0 1 18 14M7 16a1 1 0 1 0 0 2 1 1 0 0 0 0-2m11 0a1 1 0 1 0 0 2 1 1 0 0 0 0-2M14.438 4a3 3 0 0 1 2.91 2.272L17.781 8H20a3 3 0 0 1 2.995 2.824L23 11v3.02l-.01.117a1 1 0 0 1-.286.575l-.107.091-.07.049-.076.042-.106.046-.017.005-.047.016-.108.025-.118.013-.08.002-.122-.012-.148-.033-.063-.022a1 1 0 0 1-.362-.24l-.08-.094A4 4 0 0 0 18 13a4 4 0 0 0-3.2 1.6 1 1 0 0 1-.8.4h-3a1 1 0 0 1-.8-.4 3.998 3.998 0 0 0-6.402.002 1 1 0 1 1-1.602-1.198c.493-.66 1.11-1.2 1.804-1.602V9.01a1 1 0 0 1 .06-.35l.042-.1 2.004-4.007A1 1 0 0 1 7 4zM2 6a1 1 0 0 1 1 1v4a1 1 0 0 1-2 0V7a1 1 0 0 1 1-1m12.438 0H11v2h4.718l-.31-1.243a1 1 0 0 0-.97-.757M9 6H7.618L6.617 8H9z"/></symbol><symbol fill="none" stroke="currentColor" stroke-width="2" stroke-linecap="round" stroke-linejoin="round" class="icon icon-tabler icons-tabler-outline icon-tabler-bell" viewBox="0 0 24 24" id="bell" xmlns="http://www.w3.org/2000/svg"><path stroke="none" d="M0 0h24v24H0z" fill="none"/><path d="M10 5a2 2 0 1 1 4 0a7 7 0 0 1 4 6v3a4 4 0 0 0 2 3h-16a4 4 0 0 0 2 -3v-3a7 7 0 0 1 4 -6" /><path d="M9 17v1a3 3 0 0 0 6 0v-1" /></symbol><symbol fill="currentColor" class="bicon bicon-tabler bicons-tabler-filled bicon-tabler-category" viewBox="0 0 24 24" id="category" xmlns="http://www.w3.org/2000/svg"><path d="M0 0h24v24H0z" fill="none"/><path d="M10 3H4a1 1 0 0 0-1 1v6a1 1 0 0 0 1 1h6a1 1 0 0 0 1-1V4a1 1 0 0 0-1-1zM20 3h-6a1 1 0 0 0-1 1v6a1 1 0 0 0 1 1h6a1 1 0 0 0 1-1V4a1 1 0 0 0-1-1zM10 13H4a1 1 0 0 0-1 1v6a1 1 0 0 0 1 1h6a1 1 0 0 0 1-1v-6a1 1 0 0 0-1-1zM17 13a4 4 0 1 1-3.995 4.2L13 17l.005-.2A4 4 0 0 1 17 13z"/></symbol><symbol fill="currentColor" class="cicon cicon-tabler cicons-tabler-filled cicon-tabler-clipboard" viewBox="0 0 24 24" id="clipboard" xmlns="http://www.w3.org/2000/svg"><path d="M0 0h24v24H0z" fill="none"/><path d="M17.997 4.17A3 3 0 0 1 20 7v12a3 3 0 0 1-3 3H7a3 3 0 0 1-3-3V7a3 3 0 0 1 2.003-2.83A4 4 0 0 0 10 8h4a4 4 0 0 0 3.98-3.597zM14 2a2 2 0 1 1 0 4h-4a2 2 0 1 1 0-4z"/></symbol><symbol fill="currentColor" class="dicon dicon-tabler dicons-tabler-filled dicon-tabler-diamonds" viewBox="0 0 24 24" id="diamonds" xmlns="http://www.w3.org/2000/svg"><path d="M0 0h24v24H0z" fill="none"/><path d="M12 2.005c-.777 0-1.508.367-1.971.99L4.667 9.89c-.89 1.136-.89 3.083 0 4.227l5.375 6.911a2.457 2.457 0 0 0 3.93-.017l5.361-6.894c.89-1.136.89-3.083 0-4.227l-5.375-6.911A2.446 2.446 0 0 0 12 2.005z"/></symbol><symbol fill="none" stroke="currentColor" stroke-width="2" stroke-linecap="round" stroke-linejoin="round" class="ficon ficon-tabler ficons-tabler-outline ficon-tabler-eye" viewBox="0 0 24 24" id="eye" xmlns="http://www.w3.org/2000/svg"><path d="M0 0h24v24H0z" stroke="none"/><path d="M10 12a2 2 0 1 0 4 0 2 2 0 0 0-4 0"/><path d="M21 12c-2.4 4-5.4 6-9 6-3.6 0-6.6-2-9-6 2.4-4 5.4-6 9-6 3.6 0 6.6 2 9 6"/></symbol><symbol fill="none" stroke="currentColor" stroke-width="2" stroke-linecap="round" stroke-linejoin="round" class="eicon eicon-tabler eicons-tabler-outline eicon-tabler-eye-off" viewBox="0 0 24 24" id="eye-off" xmlns="http://www.w3.org/2000/svg"><path d="M0 0h24v24H0z" stroke="none"/><path d="M10.585 10.587a2 2 0 0 0 2.829 2.828"/><path d="M16.681 16.673A8.717 8.717 0 0 1 12 18c-3.6 0-6.6-2-9-6 1.272-2.12 2.712-3.678 4.32-4.674m2.86-1.146A9.055 9.055 0 0 1 12 6c3.6 0 6.6 2 9 6-.666 1.11-1.379 2.067-2.138 2.87M3 3l18 18"/></symbol><symbol fill="none" stroke="currentColor" stroke-width="2" stroke-linecap="round" stroke-linejoin="round" class="gicon gicon-tabler gicons-tabler-outline gicon-tabler-history" viewBox="0 0 24 24" id="history" xmlns="http://www.w3.org/2000/svg"><path d="M0 0h24v24H0z" stroke="none"/><path d="M12 8v4l2 2"/><path d="M3.05 11a9 9 0 1 1 .5 4m-.5 5v-5h5"/></symbol><symbol fill="none" stroke="currentColor" stroke-width="2" stroke-linecap="round" stroke-linejoin="round" class="hicon hicon-tabler hicons-tabler-outline hicon-tabler-settings-bolt" viewBox="0 0 24 24" id="settings-bolt" xmlns="http://www.w3.org/2000/svg"><path d="M0 0h24v24H0z" stroke="none"/><path d="M13.256 20.473c-.855.907-2.583.643-2.931-.79a1.724 1.724 0 0 0-2.573-1.066c-1.543.94-3.31-.826-2.37-2.37a1.724 1.724 0 0 0-1.065-2.572c-1.756-.426-1.756-2.924 0-3.35a1.724 1.724 0 0 0 1.066-2.573c-.94-1.543.826-3.31 2.37-2.37 1 .608 2.296.07 2.572-1.065.426-1.756 2.924-1.756 3.35 0a1.724 1.724 0 0 0 2.573 1.066c1.543-.94 3.31.826 2.37 2.37a1.724 1.724 0 0 0 1.065 2.572c1.07.26 1.488 1.29 1.254 2.15M19 16l-2 3h4l-2 3"/><path d="M9 12a3 3 0 1 0 6 0 3 3 0 0 0-6 0"/></symbol><symbol fill="none" stroke="currentColor" stroke-width="2" stroke-linecap="round" stroke-linejoin="round" class="iicon iicon-tabler iicons-tabler-outline iicon-tabler-toggle-left" viewBox="0 0 24 24" id="toggle-left" xmlns="http://www.w3.org/2000/svg"><path d="M0 0h24v24H0z" stroke="none"/><path d="M6 12a2 2 0 1 0 4 0 2 2 0 1 0-4 0"/><path d="M2 12a6 6 0 0 1 6-6h8a6 6 0 0 1 6 6v0a6 6 0 0 1-6 6H8a6 6 0 0 1-6-6z"/></symbol><symbol fill="none" stroke="currentColor" stroke-width="2" stroke-linecap="round" stroke-linejoin="round" class="jicon jicon-tabler jicons-tabler-outline jicon-tabler-tool" viewBox="0 0 24 24" id="tool" xmlns="http://www.w3.org/2000/svg"><path d="M0 0h24v24H0z" stroke="none"/><path d="M7 10h3V7L6.5 3.5a6 6 0 0 1 8 8l6 6a2 2 0 0 1-3 3l-6-6a6 6 0 0 1-8-8L7 10"/></symbol><symbol fill="currentColor" class="kicon kicon-tabler kicons-tabler-filled kicon-tabler-user" viewBox="0 0 24 24" id="user" xmlns="http://www.w3.org/2000/svg"><path d="M0 0h24v24H0z" fill="none"/><path d="M12 2a5 5 0 1 1-5 5l.005-.217A5 5 0 0 1 12 2zM14 14a5 5 0 0 1 5 5v1a2 2 0 0 1-2 2H7a2 2 0 0 1-2-2v-1a5 5 0 0 1 5-5h4z"/></symbol><symbol fill="none" stroke="currentColor" stroke-width="2" stroke-linecap="round" stroke-linejoin="round" class="licon licon-tabler licons-tabler-outline licon-tabler-users" viewBox="0 0 24 24" id="users" xmlns="http://www.w3.org/2000/svg"><path d="M0 0h24v24H0z" stroke="none"/><path d="M5 7a4 4 0 1 0 8 0 4 4 0 1 0-8 0M3 21v-2a4 4 0 0 1 4-4h4a4 4 0 0 1 4 4v2M16 3.13a4 4 0 0 1 0 7.75M21 21v-2a4 4 0 0 0-3-3.85"/></symbol></svg>

